<svg aria-hidden="true" style="position:absolute;width:0;height:0;overflow:hidden" xmlns="http://www.w3.org/2000/svg"><defs>
<symbol id="icon-brand" viewBox="0 0 57 32">
    <path fill="#afb1b8" style="fill:var(--color1, #afb1b8)" d="M14 24v1h-2v-3h2v2zm-2-1h2l-1-1h-1v1zm2 2v-1c0-1 0 0 0 0h-2v1h2zM17 25v-1h-1v1h-1v-3h3v2h-1l1 1h-1zm-1-1h1v-1h-1v1zM21 25h-2l1-3h1l1 3h-1zm0-1v-1l-1 1h1zM26 25l-2-2v2h-1v-3h1l2 2v-2 3zM30 24v1h-3v-3h3v1a2 2 0 0 1 0 1zm0 0v-1h-2v2h1l1-1zM22 4s9 3 9 7v8s-9-3-9-8V4zM39 18c2-2 4-2 6-2v-3c-2 1-4 2-6 5z"/>
    <path fill="#afb1b8" style="fill:var(--color1, #afb1b8)" d="m38 18 7-5V5s-13 5-13 12v11l2-1v-1c0-3 2-6 4-8z"/>
    <path fill="#afb1b8" style="fill:var(--color1, #afb1b8)" d="M37 22v-2a10 10 0 0 0-2 7l2-1v-4zM37 22l1 3c3-2 7-5 7-8v-1l-7 3-1 3z"/></symbol>
<symbol id="icon-clock" viewBox="0 0 31 32">
    <path d="M31 15a15 15 0 1 0-20 15l1-1 4-12a2 2 0 1 0-1-3l-5-6a1 1 0 0 0-1 1l5 5v3l-3 11a14 14 0 1 1 10 0v-2a1 1 0 0 0-1 0l-4 3a1 1 0 0 0 0 1l5 2a1 1 0 0 0 1-1v-2c5-2 9-8 9-14zm-15 0a1 1 0 1 1 0 1 1 1 0 0 1 0-1zm2 15 2-2v2h-2z"/></symbol>
<symbol id="icon-company-log" viewBox="0 0 57 32">
    <path fill="#afb1b8" style="fill:var(--color1, #afb1b8)" d="M19 26h1l-1 1h-1v-2a1 1 0 0 1 1 0h1-2v1a1 1 0 0 0 1 0zM23 26h-1v1h-1v-2h1a1 1 0 0 1 1 1zm-1 0v-1h-1v1h1zM25 26l1-1v2-2l-1 1-1-1v2-2l1 1zM28 26v1-2h1a1 1 0 0 1 0 1h-1zm0 0h1v-1h-1v1zM32 27h-1v-1h-1v1l1-2 1 2zm-2-1h1v-1l-1 1zM33 25l1 1v-1h1v2h-1l-1-2v2-2zM37 26v1h-1v-2h1a1 1 0 0 1 0 1v-1h1l-1 1zM25 21v1l5-4 2-5-2-2-1 6-4 4z"/>
    <path fill="#afb1b8" style="fill:var(--color1, #afb1b8)" d="m24 21 5-5v-6l-3-2c1 2 2 4 1 7l-3 6zM35 15l-4 5-2 1 4-2 3-3-1-1z"/>
    <path fill="#afb1b8" style="fill:var(--color1, #afb1b8)" d="m34 15-2-2-1 5-5 4 2-1 4-2 2-4zM24 6l-2-1c-2 0-3 1-4 3l-2 5 2 5c1 1 3 3 5 3 2-2 4-4 4-7l-3-8zM39 14l-3-6c-2-2-4-2-7-2h-4l13 11 1-3z"/>
</symbol>
<symbol id="icon-companytagline" viewBox="0 0 25 32">
    <path fill="#afb1b8" style="fill:var(--color1, #afb1b8)" d="M11 2h-1a14 14 0 0 0-1 0L3 3 2 4v13h1a23 23 0 0 1 7-1v2H9a20 20 0 0 0-9 2V3a18 18 0 0 1 10-3 18 18 0 0 1 3 0v2h-2zm3 2h1a19 19 0 0 0 9-3v17a18 18 0 0 1-13 3V3a14 14 0 0 0 3 1zm8 0h-2a21 21 0 0 1-6 1h-1v14h1a14 14 0 0 0 5 0l3-2V4zM2 26a1 1 0 0 0-1 0 1 1 0 0 0-1 0v4h1a1 1 0 0 0 1-1H1v-3 1h1a1 1 0 0 0 0-1zM5 26a1 1 0 0 0-1 0v4a1 1 0 0 0 1 0l1-1v-3H5zm0 3H4v-3h1v3zM10 30v-4H9v2l-1-2H7v4h1v-3l1 2v-2 3h1zM14 26h-2v4-2h2a3 3 0 0 0 0-2zm-1 1v1h-1v-2h1v1zM16 26l-1 4h1v-1h1v1l-1-4zm0 2v-1 1zM20 28l-1-2v4-3l1 3h1v-4h-1v2zM24 26l-1 1v-1h-1l1 2v2h1v-2l1-2h-1zM0 31v1-1h1-1zM2 31v1h1v-1H2zm0 1 1-1v1H2zM5 32v-1H4l1 1v-1 1zM7 31v1h1-1v-1zM9 31v1-1zM11 32v-1 1-1 1h1v-1h-1v1zM13 32h1v-1h-1 1-1v1h1-1zM18 31h-1v1h1v-1zM20 32v-1h-1v1h1zM22 32v-1 1h1-1zm0-1zM24 32h1v-1h-1 1-1v1h1-1z"/>
</symbol>
<symbol id="icon-companytagline2" viewBox="0 0 57 32">
    <path fill="#afb1b8" style="fill:var(--color1, #afb1b8)" d="M28 15v-4h3v1h-1v-1h-1v3h1v-1h1v2h-3zM32 15v-4h2l1 1v2l-1 1h-2zm2-1v-3h-1c-1 0 0 0 0 0v3h1zM36 11h1v3l1-3h1v4h-1v-3 3h-1l-1-3v3-4zM40 11h2l1 1-1 1h-1v2h-1v-4zm1 1a1 1 0 0 0 1 0v-1h-1v1zM44 11h1l1 4h-1v-1h-1v1h-1l1-4zm1 2v-1l-1 1h1zM47 11h1l1 2v-2h1v4h-1l-1-3v3h-1v-4zM51 13l-1-2h1l1 1v-1h1l-1 2v2h-1v-2zM30 17h-1v2-2h-1 2zM32 19v-1h-1l-1 1 1-2 1 2zm-1-1h1l-1-1v1zM34 19v-1h1v1a1 1 0 0 1-1 0h-1v-2a2 2 0 0 1 1 0 1 1 0 0 1 1 0h-1a1 1 0 0 0-1 0v2h1zM37 19h1-2v-2h1v2zM39 19h-1v-2h1v2zM40 17l1 1v-1 2l-1-2v2-2zM44 17h-1v1h1-1v1h1-2v-2h2zM11 5l14 3v12l-14-4V5zm-1-1v13l16 4V7L10 4z"/>
    <path fill="#afb1b8" style="fill:var(--color1, #afb1b8)" d="M19 27 3 23V10l16 4v13z"/>
    <path fill="#afb1b8" style="fill:var(--color1, #afb1b8)" d="m11 4 13 4-6 5L5 9l6-5zm-1 0-7 6 16 4 7-7-16-3zM20 26l6-5-6-2v7z"/>
</symbol>
<symbol id="icon-envelope" viewBox="0 0 43 32">
    <path fill="#757575" style="fill:var(--color2, #757575)" d="M39 0H4C2 0 0 2 0 4v24c0 2 2 4 4 4h35c2 0 4-2 4-4V4c0-2-2-4-4-4zm0 3L21 18 3 3h36zm0 26H4l-1-1V6l17 15a1 1 0 0 0 2 0L40 6v22l-1 1z"/>
</symbol>
<symbol id="icon-facebook" viewBox="0 0 32 32">
    <path fill="#afb1b8" style="fill:var(--color1, #afb1b8)" d="M21 5h3V0h-4c-4 0-7 3-7 8v4H8v6h5v14h6V18h4l1-6h-5V8c0-2 0-3 2-3z"/>
</symbol>
<symbol id="icon-fosterpeters" viewBox="0 0 57 32">
    <path fill="#2196f3" style="fill:var(--color3, #2196f3)" d="m13 11-2 2 2 2 2-2-2-2zM30 11l-2-5c-1-2-3-1-5-1l-4 1-2 5v8s13-1 13-8zM6 22l1 3 4 1 3-1 1-3v-6s-9 1-9 6zm5 1H9v-1l1-1h1l1 1c1 1 0 0 0 0v1h-1zM20 23h-1v1-3h1v1h-1 1v1zm2-1v1l-1 1v-1h-1v-1a1 1 0 0 1 1-1h1v1zm0 0h-1v1h1v-1zm2 1h-1v-2h1v1h-1l1 1c0 1 0 0 0 0l-1 1v-1h-1 2zm2-1v2h-1v-2h-1v-1h2v1zm2 1h-1 1v1h-1v-3h1v1h-1 1v1zm1 0v1h-1v-3h2v3l-1-1zm0-1h1-1zm3 1v1h-1v-3h1l1 1v1h-1zm0-1zm3 1h-1 1v1h-2v-3h2v1h-1 1v1zm2-1h-1v2-2h-1v-1h2v1zm1 1h-1 2v1h-2v-3h2v1h-2 1v1zm2 0h-1v1-3h1l1 1h-1v1l1 1h-1v-1zm-1-1h1-1zm3 1-1-1v-1h1v1h1-2 1v1h1-1v1h-1v-1h1z"/>
</symbol>
<symbol id="icon-instagram" viewBox="0 0 32 32">
    <path fill="#afb1b8" style="fill:var(--color1, #afb1b8)" d="m32 9-1-3c0-2-1-3-2-3l-2-2-4-1A110 110 0 0 0 6 1L3 3C2 3 1 4 1 6L0 9a110 110 0 0 0 1 17c0 2 1 3 2 3l3 2 3 1a117 117 0 0 0 18-1c2-1 3-2 4-5l1-3V9zm-3 13v3c-1 2-2 3-4 3l-2 1a113 113 0 0 1-16-1l-2-1-1-2-1-3A113 113 0 0 1 4 7l1-2 2-1 3-1a113 113 0 0 1 16 1l1 1 2 2v15z"/>
    <path fill="#afb1b8" style="fill:var(--color1, #afb1b8)" d="M16 8a8 8 0 1 0 0 16 8 8 0 0 0 0-16zm0 13a5 5 0 1 1 0-10 5 5 0 0 1 0 10zM27 7a2 2 0 1 1-4 0 2 2 0 0 1 4 0z"/>
</symbol>
<symbol id="icon-linkedin" viewBox="0 0 32 32">
    <path fill="#afb1b8" style="fill:var(--color1, #afb1b8)" d="M32 32V20c0-5-1-10-8-10-3 0-5 2-6 4v-3h-7v21h7V21c0-2 0-5 4-5 3 0 3 3 3 6v10h7zM1 11h6v21H1V11zM4 0C2 0 0 2 0 4s2 4 4 4 4-2 4-4-2-4-4-4z"/>
</symbol>
<symbol id="icon-pc" viewBox="0 0 41 32">
    <path d="M2 32h33l2-2v-3l-2-2V8l3-4a2 2 0 1 0 0-1l-3 3V4c0-1-1-2-3-2H5L3 4v21H2l-2 2v3l2 2zM39 2a1 1 0 1 1 0 1 1 1 0 0 1 0-1zM4 4h29v3l-1 2V6l-1-1H6v19h25l1-1V10l1-1v16H4V4zm6 9a2 2 0 1 0 2 4l2 1h1l5-6 5 4h1l4-4v10H7V6h23v4l-4 4-6-3c0-1 0-1 0 0l-6 6-2-1v-1c0-1 0-2-2-2zm1 2a1 1 0 1 1-1 0 1 1 0 0 1 1 0zm4 11h7v1l-1 1h-5l-1-1v-1zM1 27l1-1h12v1l2 2h5c2 0 2-1 2-2v-1h12l1 1v3l-1 1H2l-1-1v-3z"/>
</symbol>
<symbol id="icon-phone" viewBox="0 0 20 32">
    <path fill="#757575" style="fill:var(--color2, #757575)" d="M17 0H3C1 0 0 1 0 3v26c0 2 1 3 3 3h14c2 0 3-1 3-3V3c0-2-1-3-3-3zM3 2h14l1 1v21H2V3l1-1zm14 28H3l-1-1v-3h16v3l-1 1z"/>
</symbol>
<symbol id="icon-radar" viewBox="0 0 30 32">
    <path d="m30 22-9-8 1-5h1a2 2 0 1 0-2-1h-5L8 0H7L6 2l1 1a15 15 0 0 0 2 18v7H3c-2 0-3 1-3 2v1l1 1h24l1-1v-1c0-1-1-2-3-2h-6v-3a15 15 0 0 0 10-1h1v1-1l2-1v-1zM22 6a1 1 0 1 1 1 2 1 1 0 0 1-1-2zm-1 4v3l-2-1 2-2zm0-1-2 2-2-2h4zm2 20 2 1v1H1v-1l2-1h20zm-7-2v1h-6v-1h6zm-6-1v-4c0-2 1-3 3-3s3 1 3 3v4h-6zm7-2v-2c0-2-2-4-4-4l-3 2C6 16 5 9 7 4l19 19c-3 1-6 2-9 1zm11-1L7 2l1-1 8 8 13 13-1 1z"/>
</symbol>
<symbol id="icon-twitter" viewBox="0 0 36 32">
    <path fill="#afb1b8" style="fill:var(--color1, #afb1b8)" d="m36 5-5 1 4-4-5 2a7 7 0 0 0-12 7C11 10 6 7 2 3a7 7 0 0 0 3 10l-4-1c0 3 3 6 6 7a7 7 0 0 1-3 0c1 3 4 5 7 5a15 15 0 0 1-11 3c3 2 7 3 11 3A21 21 0 0 0 32 9l4-4z"/>
</symbol>
<symbol id="icon-Union" viewBox="0 0 28 32">
    <path fill="#afb1b8" style="fill:var(--color1, #afb1b8)" d="m4 0 5 5H0v21h23v-8l5 5V0H4zm19 18L9 5h14v13zm-4 5H4V8h1v14h14v1zM7 29v1l-1-1v3h1v-1l1-2H7zm1 3v-1h1v1h1l-1-3H8l-1 3h1zm1-2v1H8l1-1zm2 1v1h1c1 0 0 0 0 0h1l-1-1h1-1v-2h-1v2zm1 0h-1 1zm-1-1h1-1zm4 2 1-1h-2v-1h2-1v-1h-1v3h1zm3-1v-1a1 1 0 0 0-1-1h-1v3h2v-1zm-1-1h1v1h-2v-1h1z"/>
</symbol>
<symbol id="icon-mobile" viewBox="0 0 32 32">
    <path d="M23 0H9C7 0 6 1 6 3v26c0 2 1 3 3 3h14c2 0 3-1 3-3V3c0-2-1-3-3-3zM12 2h8v1h-8V2zm4 28a2 2 0 1 1 0-4 2 2 0 0 1 0 4zm8-6H8V4h16v20z"/>
</symbol>
</defs>
</svg>